<?xml version="1.0" encoding="utf-8"?>
<!-- Generator: Adobe Illustrator 22.0.0, SVG Export Plug-In . SVG Version: 6.00 Build 0)  -->
<svg version="1.1" id="Camada_1" xmlns="http://www.w3.org/2000/svg" xmlns:xlink="http://www.w3.org/1999/xlink" x="0px" y="0px"
	 viewBox="0 0 64 64" style="enable-background:new 0 0 64 64;" xml:space="preserve">
<style type="text/css">
	.st0{fill:none;stroke:#993366;stroke-width:4;stroke-linecap:round;stroke-linejoin:round;}
</style>
<path class="st0" d="M58.7,29.5V32c0,5.8-1.9,11.3-5.3,16c-3.4,4.6-8.3,8-13.8,9.6C34,59.2,28.2,59,22.8,57c-5.4-2-10-5.7-13.1-10.5
	S5,36,5.4,30.2C5.8,24.5,8,19,11.7,14.7c3.7-4.4,8.8-7.4,14.4-8.7c5.6-1.3,11.5-0.7,16.7,1.7"/>
<path class="st0" d="M58.7,10.7L32,37.4L17.4,22.7"/>
<line class="st0" x1="32" y1="37.4" x2="41.5" y2="46.9"/>
<line class="st0" x1="32" y1="37.4" x2="22" y2="47.4"/>
</svg>
