<?xml version="1.0" encoding="utf-8"?>
<!-- Generator: Adobe Illustrator 22.0.0, SVG Export Plug-In . SVG Version: 6.00 Build 0)  -->
<svg version="1.1" id="Camada_1" xmlns="http://www.w3.org/2000/svg" xmlns:xlink="http://www.w3.org/1999/xlink" x="0px" y="0px"
	 viewBox="0 0 182 44" style="enable-background:new 0 0 182 44;" xml:space="preserve">
<style type="text/css">
	.st0{fill:#2FB86E;}
	.st1{fill:#322153;}
</style>
<g id="Camada_1_1_">
	<path class="st0" d="M37.6,8.4l-3.2-6.5c-0.5-1.1-1.7-1.9-3-1.9h-2.7c0.3,0,0.5,0,0.7,0.1h-1.5L28,0h-3h-7.4c-1.2,0-2.4,0.7-3,1.8
		L10,10.5c-0.3,0.6-0.1,1.3,0.4,1.6l5.3,3.1c0,0,0,0,0,0l1.9,1.1c0.6,0.4,1.3,0.2,1.6-0.4l6-10.8l4.1,7.3c0,0,0,0-0.1,0
		c-0.4,0.2-0.4,0.9,0,1l6,2.4c0.1,0,0.2,0,0.3,0c0.2,0,0.4-0.1,0.5-0.3l2.3-6.3C38.4,8.7,38,8.3,37.6,8.4z"/>
	<g>
		<path class="st0" d="M35.9,43.6c1.2,0,2.4-0.7,3-1.9l0.9-1.9c0.5-0.9,0.4-1.9-0.1-2.7l-2.3-3.5l-5.9,0c-0.1-0.4-0.5-0.5-0.8-0.2
			L26,38.3c-0.2,0.2-0.2,0.5,0,0.7l4.7,4.9c0.3,0.3,0.7,0.1,0.8-0.2"/>
		<line class="st0" x1="37.4" y1="33.6" x2="37.4" y2="33.6"/>
	</g>
	<g>
		<line class="st0" x1="5.9" y1="40.1" x2="5.9" y2="40.1"/>
		<path class="st0" d="M10.1,32.9l-4.2,7.2l1,1.9c0.6,1.1,1.7,1.8,3,1.8h8.3c-0.1,0.1-0.3,0.1-0.4,0.1h3c0.5,0,0.9-0.3,1-0.8
			c0-0.1,0.1-0.2,0.1-0.4V34c0-0.7-0.5-1.2-1.1-1.2h-3"/>
	</g>
	<path class="st0" d="M12.8,25.2L12,18.6c0-0.3-0.3-0.6-0.6-0.5l-0.1,0c0,0,0,0,0,0l-1.7,0.2l0,0L4.9,19c-0.5,0.1-0.7,0.7-0.3,1
		l-4,6c-0.7,1.1-0.8,2.5-0.2,3.7l2.9,5.5l0,0L4.8,38l7.1-12.2c0.2,0.2,0.5,0.1,0.6,0C12.7,25.7,12.8,25.4,12.8,25.2z"/>
	<path class="st0" d="M48,27.3C48,27.3,48,27.3,48,27.3c0-0.6-0.2-1.2-0.5-1.7L42,17.4c-0.2-0.5-0.7-0.6-1.1-0.5
		c-0.2,0-0.3,0-0.5,0.1l-0.9,0.5l-0.1,0.1l0,0l-6.1,3.7c-0.6,0.3-0.7,1.1-0.4,1.7L43,38.7l4.7-9.6c0.2-0.4,0.2-0.8,0.3-1.2
		C48,27.7,48,27.5,48,27.3z"/>
</g>
<g id="Camada_2_1_">
	<g>
		<path class="st1" d="M80.3,33.9c-2.4,0-4.3-0.7-5.8-2.2s-2.3-3.4-2.3-5.9v-0.4c0-1.6,0.3-3.1,1-4.4s1.5-2.3,2.7-3s2.5-1,4-1
			c2.2,0,4,0.7,5.3,2.1s1.9,3.4,1.9,6v1.8H76.6c0.1,1.1,0.6,1.9,1.3,2.6s1.6,1,2.7,1c1.7,0,3-0.6,3.9-1.8l2.1,2.4
			c-0.7,0.9-1.5,1.6-2.7,2.2C82.9,33.6,81.7,33.9,80.3,33.9z M79.8,20.5c-0.9,0-1.6,0.3-2.1,0.9s-0.9,1.4-1,2.5h6.1v-0.3
			c0-1-0.3-1.7-0.8-2.3C81.5,20.7,80.7,20.5,79.8,20.5z"/>
		<path class="st1" d="M96.3,30.3c0.8,0,1.5-0.2,2-0.7c0.5-0.4,0.8-1,0.8-1.8h4.1c0,1.1-0.3,2.1-0.9,3s-1.4,1.6-2.4,2.1
			s-2.2,0.8-3.4,0.8c-2.3,0-4.2-0.7-5.5-2.2s-2-3.5-2-6.1v-0.3c0-2.5,0.7-4.5,2-6s3.2-2.2,5.5-2.2c2,0,3.7,0.6,4.9,1.7
			c1.2,1.2,1.9,2.7,1.9,4.6H99c0-0.8-0.3-1.5-0.8-2.1c-0.5-0.5-1.2-0.8-2-0.8c-1,0-1.8,0.4-2.3,1.1s-0.8,1.9-0.8,3.6v0.5
			c0,1.7,0.3,2.9,0.8,3.6C94.5,30,95.2,30.3,96.3,30.3z"/>
		<path class="st1" d="M104.9,25.3c0-1.6,0.3-3.1,0.9-4.3c0.6-1.3,1.5-2.2,2.7-2.9c1.2-0.7,2.5-1,4.1-1c2.2,0,4,0.7,5.4,2
			s2.2,3.2,2.3,5.5v1.1c0,2.5-0.7,4.5-2.1,6s-3.3,2.3-5.6,2.3s-4.2-0.8-5.6-2.3s-2.1-3.6-2.1-6.2C104.9,25.5,104.9,25.3,104.9,25.3z
			 M109.3,25.6c0,1.6,0.3,2.7,0.9,3.6s1.4,1.2,2.5,1.2s1.9-0.4,2.5-1.2c0.6-0.8,0.9-2.1,0.9-3.9c0-1.5-0.3-2.7-0.9-3.5
			s-1.4-1.3-2.5-1.3s-1.9,0.4-2.5,1.2C109.6,22.5,109.3,23.8,109.3,25.6z"/>
		<path class="st1" d="M127.7,33.6h-4.4V10.4h4.4V33.6z"/>
		<path class="st1" d="M135.9,33.6h-4.4V10.4h4.4V33.6z"/>
		<path class="st1" d="M147,33.9c-2.4,0-4.3-0.7-5.8-2.2s-2.3-3.4-2.3-5.9v-0.4c0-1.6,0.3-3.1,1-4.4s1.5-2.3,2.7-3s2.5-1,4-1
			c2.2,0,4,0.7,5.3,2.1s1.9,3.4,1.9,6v1.8h-10.4c0.1,1.1,0.6,1.9,1.3,2.6s1.6,1,2.7,1c1.7,0,3-0.6,3.9-1.8l2.1,2.4
			c-0.7,0.9-1.5,1.6-2.7,2.2C149.6,33.6,148.3,33.9,147,33.9z M146.5,20.5c-0.9,0-1.6,0.3-2.1,0.9s-0.9,1.4-1,2.5h6.1v-0.3
			c0-1-0.3-1.7-0.8-2.3S147.4,20.5,146.5,20.5z"/>
		<path class="st1" d="M162.9,30.3c0.8,0,1.5-0.2,2-0.7s0.8-1,0.8-1.8h4.1c0,1.1-0.3,2.1-0.9,3c-0.6,0.9-1.4,1.6-2.4,2.1
			s-2.2,0.8-3.4,0.8c-2.3,0-4.2-0.7-5.5-2.2s-2-3.5-2-6.1v-0.3c0-2.5,0.7-4.5,2-6s3.2-2.2,5.5-2.2c2,0,3.7,0.6,4.9,1.7
			c1.2,1.2,1.9,2.7,1.9,4.6h-4.1c0-0.8-0.3-1.5-0.8-2.1c-0.5-0.5-1.2-0.8-2-0.8c-1,0-1.8,0.4-2.3,1.1s-0.8,1.9-0.8,3.6v0.5
			c0,1.7,0.3,2.9,0.8,3.6C161.1,30,161.9,30.3,162.9,30.3z"/>
		<path class="st1" d="M177.5,13.2v4h2.8v3.2h-2.8v8.1c0,0.6,0.1,1,0.3,1.3s0.7,0.4,1.3,0.4c0.5,0,0.9,0,1.3-0.1v3.3
			c-0.9,0.3-1.7,0.4-2.6,0.4c-3.1,0-4.6-1.5-4.7-4.6v-8.8h-2.4v-3.2h2.4v-4C173.1,13.2,177.5,13.2,177.5,13.2z"/>
	</g>
</g>
</svg>
